<?xml version="1.0" standalone="no"?>
<svg xmlns="http://www.w3.org/2000/svg" version="1.1" width="244" height="244">
	<!-- Created with https://api.qrserver.com (QR Code API, see goQR.me/api for information) -->
	<title>QR Code</title>
	<desc>BEGIN:VCARD
VERSION:2.1
FN:Sebastian Wolf
N:Wolf;Sebastian
TEL;CELL:http://www.mail-wolf.de
EMAIL;HOME;INTERNET:sebastian@mail-wolf.de
EMAIL;WORK;INTERNET:sebastian.wolf.sw1@roche.com
URL:http://github.com/zappingseb
ADR;WORK:;;http://www.linkedin.com/in/zappingseb;;;;
ORG:Roche Diagnostics
END:VCARD
</desc>
	<rect style="fill:rgb(255, 255, 255);fill-opacity:1" x="0" y="0" width="244" height="244" />
	<g id="elements">
		<path style="fill:rgb(0, 102, 204)" d="M 0,0 l 4,0 0,4 -4,0 z M 4,0 l 4,0 0,4 -4,0 z M 8,0 l 4,0 0,4 -4,0 z M 12,0 l 4,0 0,4 -4,0 z M 16,0 l 4,0 0,4 -4,0 z M 20,0 l 4,0 0,4 -4,0 z M 24,0 l 4,0 0,4 -4,0 z M 40,0 l 4,0 0,4 -4,0 z M 44,0 l 4,0 0,4 -4,0 z M 64,0 l 4,0 0,4 -4,0 z M 68,0 l 4,0 0,4 -4,0 z M 72,0 l 4,0 0,4 -4,0 z M 80,0 l 4,0 0,4 -4,0 z M 84,0 l 4,0 0,4 -4,0 z M 88,0 l 4,0 0,4 -4,0 z M 96,0 l 4,0 0,4 -4,0 z M 104,0 l 4,0 0,4 -4,0 z M 108,0 l 4,0 0,4 -4,0 z M 116,0 l 4,0 0,4 -4,0 z M 120,0 l 4,0 0,4 -4,0 z M 124,0 l 4,0 0,4 -4,0 z M 128,0 l 4,0 0,4 -4,0 z M 132,0 l 4,0 0,4 -4,0 z M 136,0 l 4,0 0,4 -4,0 z M 144,0 l 4,0 0,4 -4,0 z M 148,0 l 4,0 0,4 -4,0 z M 152,0 l 4,0 0,4 -4,0 z M 156,0 l 4,0 0,4 -4,0 z M 160,0 l 4,0 0,4 -4,0 z M 168,0 l 4,0 0,4 -4,0 z M 172,0 l 4,0 0,4 -4,0 z M 188,0 l 4,0 0,4 -4,0 z M 192,0 l 4,0 0,4 -4,0 z M 204,0 l 4,0 0,4 -4,0 z M 208,0 l 4,0 0,4 -4,0 z M 216,0 l 4,0 0,4 -4,0 z M 220,0 l 4,0 0,4 -4,0 z M 224,0 l 4,0 0,4 -4,0 z M 228,0 l 4,0 0,4 -4,0 z M 232,0 l 4,0 0,4 -4,0 z M 236,0 l 4,0 0,4 -4,0 z M 240,0 l 4,0 0,4 -4,0 z M 0,4 l 4,0 0,4 -4,0 z M 24,4 l 4,0 0,4 -4,0 z M 32,4 l 4,0 0,4 -4,0 z M 40,4 l 4,0 0,4 -4,0 z M 48,4 l 4,0 0,4 -4,0 z M 60,4 l 4,0 0,4 -4,0 z M 64,4 l 4,0 0,4 -4,0 z M 72,4 l 4,0 0,4 -4,0 z M 96,4 l 4,0 0,4 -4,0 z M 100,4 l 4,0 0,4 -4,0 z M 104,4 l 4,0 0,4 -4,0 z M 116,4 l 4,0 0,4 -4,0 z M 136,4 l 4,0 0,4 -4,0 z M 152,4 l 4,0 0,4 -4,0 z M 164,4 l 4,0 0,4 -4,0 z M 176,4 l 4,0 0,4 -4,0 z M 180,4 l 4,0 0,4 -4,0 z M 192,4 l 4,0 0,4 -4,0 z M 196,4 l 4,0 0,4 -4,0 z M 204,4 l 4,0 0,4 -4,0 z M 208,4 l 4,0 0,4 -4,0 z M 216,4 l 4,0 0,4 -4,0 z M 240,4 l 4,0 0,4 -4,0 z M 0,8 l 4,0 0,4 -4,0 z M 8,8 l 4,0 0,4 -4,0 z M 12,8 l 4,0 0,4 -4,0 z M 16,8 l 4,0 0,4 -4,0 z M 24,8 l 4,0 0,4 -4,0 z M 36,8 l 4,0 0,4 -4,0 z M 44,8 l 4,0 0,4 -4,0 z M 56,8 l 4,0 0,4 -4,0 z M 64,8 l 4,0 0,4 -4,0 z M 68,8 l 4,0 0,4 -4,0 z M 72,8 l 4,0 0,4 -4,0 z M 76,8 l 4,0 0,4 -4,0 z M 84,8 l 4,0 0,4 -4,0 z M 96,8 l 4,0 0,4 -4,0 z M 100,8 l 4,0 0,4 -4,0 z M 124,8 l 4,0 0,4 -4,0 z M 140,8 l 4,0 0,4 -4,0 z M 156,8 l 4,0 0,4 -4,0 z M 164,8 l 4,0 0,4 -4,0 z M 176,8 l 4,0 0,4 -4,0 z M 196,8 l 4,0 0,4 -4,0 z M 200,8 l 4,0 0,4 -4,0 z M 204,8 l 4,0 0,4 -4,0 z M 208,8 l 4,0 0,4 -4,0 z M 216,8 l 4,0 0,4 -4,0 z M 224,8 l 4,0 0,4 -4,0 z M 228,8 l 4,0 0,4 -4,0 z M 232,8 l 4,0 0,4 -4,0 z M 240,8 l 4,0 0,4 -4,0 z M 0,12 l 4,0 0,4 -4,0 z M 8,12 l 4,0 0,4 -4,0 z M 12,12 l 4,0 0,4 -4,0 z M 16,12 l 4,0 0,4 -4,0 z M 24,12 l 4,0 0,4 -4,0 z M 32,12 l 4,0 0,4 -4,0 z M 36,12 l 4,0 0,4 -4,0 z M 40,12 l 4,0 0,4 -4,0 z M 44,12 l 4,0 0,4 -4,0 z M 52,12 l 4,0 0,4 -4,0 z M 56,12 l 4,0 0,4 -4,0 z M 68,12 l 4,0 0,4 -4,0 z M 84,12 l 4,0 0,4 -4,0 z M 92,12 l 4,0 0,4 -4,0 z M 96,12 l 4,0 0,4 -4,0 z M 104,12 l 4,0 0,4 -4,0 z M 116,12 l 4,0 0,4 -4,0 z M 124,12 l 4,0 0,4 -4,0 z M 144,12 l 4,0 0,4 -4,0 z M 148,12 l 4,0 0,4 -4,0 z M 168,12 l 4,0 0,4 -4,0 z M 172,12 l 4,0 0,4 -4,0 z M 180,12 l 4,0 0,4 -4,0 z M 200,12 l 4,0 0,4 -4,0 z M 208,12 l 4,0 0,4 -4,0 z M 216,12 l 4,0 0,4 -4,0 z M 224,12 l 4,0 0,4 -4,0 z M 228,12 l 4,0 0,4 -4,0 z M 232,12 l 4,0 0,4 -4,0 z M 240,12 l 4,0 0,4 -4,0 z M 0,16 l 4,0 0,4 -4,0 z M 8,16 l 4,0 0,4 -4,0 z M 12,16 l 4,0 0,4 -4,0 z M 16,16 l 4,0 0,4 -4,0 z M 24,16 l 4,0 0,4 -4,0 z M 40,16 l 4,0 0,4 -4,0 z M 44,16 l 4,0 0,4 -4,0 z M 56,16 l 4,0 0,4 -4,0 z M 64,16 l 4,0 0,4 -4,0 z M 68,16 l 4,0 0,4 -4,0 z M 72,16 l 4,0 0,4 -4,0 z M 76,16 l 4,0 0,4 -4,0 z M 88,16 l 4,0 0,4 -4,0 z M 92,16 l 4,0 0,4 -4,0 z M 96,16 l 4,0 0,4 -4,0 z M 100,16 l 4,0 0,4 -4,0 z M 108,16 l 4,0 0,4 -4,0 z M 112,16 l 4,0 0,4 -4,0 z M 116,16 l 4,0 0,4 -4,0 z M 120,16 l 4,0 0,4 -4,0 z M 124,16 l 4,0 0,4 -4,0 z M 128,16 l 4,0 0,4 -4,0 z M 132,16 l 4,0 0,4 -4,0 z M 136,16 l 4,0 0,4 -4,0 z M 144,16 l 4,0 0,4 -4,0 z M 164,16 l 4,0 0,4 -4,0 z M 172,16 l 4,0 0,4 -4,0 z M 188,16 l 4,0 0,4 -4,0 z M 192,16 l 4,0 0,4 -4,0 z M 196,16 l 4,0 0,4 -4,0 z M 200,16 l 4,0 0,4 -4,0 z M 204,16 l 4,0 0,4 -4,0 z M 216,16 l 4,0 0,4 -4,0 z M 224,16 l 4,0 0,4 -4,0 z M 228,16 l 4,0 0,4 -4,0 z M 232,16 l 4,0 0,4 -4,0 z M 240,16 l 4,0 0,4 -4,0 z M 0,20 l 4,0 0,4 -4,0 z M 24,20 l 4,0 0,4 -4,0 z M 32,20 l 4,0 0,4 -4,0 z M 48,20 l 4,0 0,4 -4,0 z M 52,20 l 4,0 0,4 -4,0 z M 56,20 l 4,0 0,4 -4,0 z M 72,20 l 4,0 0,4 -4,0 z M 76,20 l 4,0 0,4 -4,0 z M 80,20 l 4,0 0,4 -4,0 z M 92,20 l 4,0 0,4 -4,0 z M 96,20 l 4,0 0,4 -4,0 z M 100,20 l 4,0 0,4 -4,0 z M 104,20 l 4,0 0,4 -4,0 z M 112,20 l 4,0 0,4 -4,0 z M 128,20 l 4,0 0,4 -4,0 z M 132,20 l 4,0 0,4 -4,0 z M 144,20 l 4,0 0,4 -4,0 z M 148,20 l 4,0 0,4 -4,0 z M 152,20 l 4,0 0,4 -4,0 z M 156,20 l 4,0 0,4 -4,0 z M 160,20 l 4,0 0,4 -4,0 z M 172,20 l 4,0 0,4 -4,0 z M 176,20 l 4,0 0,4 -4,0 z M 192,20 l 4,0 0,4 -4,0 z M 200,20 l 4,0 0,4 -4,0 z M 216,20 l 4,0 0,4 -4,0 z M 240,20 l 4,0 0,4 -4,0 z M 0,24 l 4,0 0,4 -4,0 z M 4,24 l 4,0 0,4 -4,0 z M 8,24 l 4,0 0,4 -4,0 z M 12,24 l 4,0 0,4 -4,0 z M 16,24 l 4,0 0,4 -4,0 z M 20,24 l 4,0 0,4 -4,0 z M 24,24 l 4,0 0,4 -4,0 z M 32,24 l 4,0 0,4 -4,0 z M 40,24 l 4,0 0,4 -4,0 z M 48,24 l 4,0 0,4 -4,0 z M 56,24 l 4,0 0,4 -4,0 z M 64,24 l 4,0 0,4 -4,0 z M 72,24 l 4,0 0,4 -4,0 z M 80,24 l 4,0 0,4 -4,0 z M 88,24 l 4,0 0,4 -4,0 z M 96,24 l 4,0 0,4 -4,0 z M 104,24 l 4,0 0,4 -4,0 z M 112,24 l 4,0 0,4 -4,0 z M 120,24 l 4,0 0,4 -4,0 z M 128,24 l 4,0 0,4 -4,0 z M 136,24 l 4,0 0,4 -4,0 z M 144,24 l 4,0 0,4 -4,0 z M 152,24 l 4,0 0,4 -4,0 z M 160,24 l 4,0 0,4 -4,0 z M 168,24 l 4,0 0,4 -4,0 z M 176,24 l 4,0 0,4 -4,0 z M 184,24 l 4,0 0,4 -4,0 z M 192,24 l 4,0 0,4 -4,0 z M 200,24 l 4,0 0,4 -4,0 z M 208,24 l 4,0 0,4 -4,0 z M 216,24 l 4,0 0,4 -4,0 z M 220,24 l 4,0 0,4 -4,0 z M 224,24 l 4,0 0,4 -4,0 z M 228,24 l 4,0 0,4 -4,0 z M 232,24 l 4,0 0,4 -4,0 z M 236,24 l 4,0 0,4 -4,0 z M 240,24 l 4,0 0,4 -4,0 z M 36,28 l 4,0 0,4 -4,0 z M 44,28 l 4,0 0,4 -4,0 z M 52,28 l 4,0 0,4 -4,0 z M 64,28 l 4,0 0,4 -4,0 z M 68,28 l 4,0 0,4 -4,0 z M 72,28 l 4,0 0,4 -4,0 z M 76,28 l 4,0 0,4 -4,0 z M 88,28 l 4,0 0,4 -4,0 z M 92,28 l 4,0 0,4 -4,0 z M 100,28 l 4,0 0,4 -4,0 z M 108,28 l 4,0 0,4 -4,0 z M 112,28 l 4,0 0,4 -4,0 z M 128,28 l 4,0 0,4 -4,0 z M 132,28 l 4,0 0,4 -4,0 z M 148,28 l 4,0 0,4 -4,0 z M 152,28 l 4,0 0,4 -4,0 z M 160,28 l 4,0 0,4 -4,0 z M 164,28 l 4,0 0,4 -4,0 z M 168,28 l 4,0 0,4 -4,0 z M 172,28 l 4,0 0,4 -4,0 z M 176,28 l 4,0 0,4 -4,0 z M 188,28 l 4,0 0,4 -4,0 z M 192,28 l 4,0 0,4 -4,0 z M 196,28 l 4,0 0,4 -4,0 z M 208,28 l 4,0 0,4 -4,0 z M 0,32 l 4,0 0,4 -4,0 z M 4,32 l 4,0 0,4 -4,0 z M 8,32 l 4,0 0,4 -4,0 z M 12,32 l 4,0 0,4 -4,0 z M 16,32 l 4,0 0,4 -4,0 z M 24,32 l 4,0 0,4 -4,0 z M 28,32 l 4,0 0,4 -4,0 z M 32,32 l 4,0 0,4 -4,0 z M 40,32 l 4,0 0,4 -4,0 z M 48,32 l 4,0 0,4 -4,0 z M 56,32 l 4,0 0,4 -4,0 z M 60,32 l 4,0 0,4 -4,0 z M 72,32 l 4,0 0,4 -4,0 z M 84,32 l 4,0 0,4 -4,0 z M 88,32 l 4,0 0,4 -4,0 z M 100,32 l 4,0 0,4 -4,0 z M 112,32 l 4,0 0,4 -4,0 z M 116,32 l 4,0 0,4 -4,0 z M 120,32 l 4,0 0,4 -4,0 z M 124,32 l 4,0 0,4 -4,0 z M 128,32 l 4,0 0,4 -4,0 z M 136,32 l 4,0 0,4 -4,0 z M 140,32 l 4,0 0,4 -4,0 z M 156,32 l 4,0 0,4 -4,0 z M 160,32 l 4,0 0,4 -4,0 z M 180,32 l 4,0 0,4 -4,0 z M 200,32 l 4,0 0,4 -4,0 z M 212,32 l 4,0 0,4 -4,0 z M 220,32 l 4,0 0,4 -4,0 z M 228,32 l 4,0 0,4 -4,0 z M 236,32 l 4,0 0,4 -4,0 z M 4,36 l 4,0 0,4 -4,0 z M 12,36 l 4,0 0,4 -4,0 z M 28,36 l 4,0 0,4 -4,0 z M 32,36 l 4,0 0,4 -4,0 z M 36,36 l 4,0 0,4 -4,0 z M 40,36 l 4,0 0,4 -4,0 z M 52,36 l 4,0 0,4 -4,0 z M 64,36 l 4,0 0,4 -4,0 z M 68,36 l 4,0 0,4 -4,0 z M 72,36 l 4,0 0,4 -4,0 z M 76,36 l 4,0 0,4 -4,0 z M 80,36 l 4,0 0,4 -4,0 z M 84,36 l 4,0 0,4 -4,0 z M 88,36 l 4,0 0,4 -4,0 z M 116,36 l 4,0 0,4 -4,0 z M 120,36 l 4,0 0,4 -4,0 z M 128,36 l 4,0 0,4 -4,0 z M 132,36 l 4,0 0,4 -4,0 z M 136,36 l 4,0 0,4 -4,0 z M 144,36 l 4,0 0,4 -4,0 z M 152,36 l 4,0 0,4 -4,0 z M 156,36 l 4,0 0,4 -4,0 z M 164,36 l 4,0 0,4 -4,0 z M 168,36 l 4,0 0,4 -4,0 z M 172,36 l 4,0 0,4 -4,0 z M 180,36 l 4,0 0,4 -4,0 z M 184,36 l 4,0 0,4 -4,0 z M 188,36 l 4,0 0,4 -4,0 z M 192,36 l 4,0 0,4 -4,0 z M 208,36 l 4,0 0,4 -4,0 z M 212,36 l 4,0 0,4 -4,0 z M 216,36 l 4,0 0,4 -4,0 z M 220,36 l 4,0 0,4 -4,0 z M 236,36 l 4,0 0,4 -4,0 z M 0,40 l 4,0 0,4 -4,0 z M 4,40 l 4,0 0,4 -4,0 z M 8,40 l 4,0 0,4 -4,0 z M 24,40 l 4,0 0,4 -4,0 z M 36,40 l 4,0 0,4 -4,0 z M 40,40 l 4,0 0,4 -4,0 z M 44,40 l 4,0 0,4 -4,0 z M 48,40 l 4,0 0,4 -4,0 z M 52,40 l 4,0 0,4 -4,0 z M 56,40 l 4,0 0,4 -4,0 z M 68,40 l 4,0 0,4 -4,0 z M 72,40 l 4,0 0,4 -4,0 z M 80,40 l 4,0 0,4 -4,0 z M 88,40 l 4,0 0,4 -4,0 z M 92,40 l 4,0 0,4 -4,0 z M 100,40 l 4,0 0,4 -4,0 z M 108,40 l 4,0 0,4 -4,0 z M 116,40 l 4,0 0,4 -4,0 z M 120,40 l 4,0 0,4 -4,0 z M 128,40 l 4,0 0,4 -4,0 z M 132,40 l 4,0 0,4 -4,0 z M 136,40 l 4,0 0,4 -4,0 z M 140,40 l 4,0 0,4 -4,0 z M 144,40 l 4,0 0,4 -4,0 z M 148,40 l 4,0 0,4 -4,0 z M 152,40 l 4,0 0,4 -4,0 z M 156,40 l 4,0 0,4 -4,0 z M 160,40 l 4,0 0,4 -4,0 z M 164,40 l 4,0 0,4 -4,0 z M 168,40 l 4,0 0,4 -4,0 z M 172,40 l 4,0 0,4 -4,0 z M 184,40 l 4,0 0,4 -4,0 z M 192,40 l 4,0 0,4 -4,0 z M 216,40 l 4,0 0,4 -4,0 z M 220,40 l 4,0 0,4 -4,0 z M 224,40 l 4,0 0,4 -4,0 z M 228,40 l 4,0 0,4 -4,0 z M 232,40 l 4,0 0,4 -4,0 z M 236,40 l 4,0 0,4 -4,0 z M 240,40 l 4,0 0,4 -4,0 z M 12,44 l 4,0 0,4 -4,0 z M 16,44 l 4,0 0,4 -4,0 z M 20,44 l 4,0 0,4 -4,0 z M 32,44 l 4,0 0,4 -4,0 z M 36,44 l 4,0 0,4 -4,0 z M 40,44 l 4,0 0,4 -4,0 z M 52,44 l 4,0 0,4 -4,0 z M 68,44 l 4,0 0,4 -4,0 z M 76,44 l 4,0 0,4 -4,0 z M 80,44 l 4,0 0,4 -4,0 z M 104,44 l 4,0 0,4 -4,0 z M 108,44 l 4,0 0,4 -4,0 z M 112,44 l 4,0 0,4 -4,0 z M 116,44 l 4,0 0,4 -4,0 z M 124,44 l 4,0 0,4 -4,0 z M 152,44 l 4,0 0,4 -4,0 z M 160,44 l 4,0 0,4 -4,0 z M 164,44 l 4,0 0,4 -4,0 z M 168,44 l 4,0 0,4 -4,0 z M 176,44 l 4,0 0,4 -4,0 z M 188,44 l 4,0 0,4 -4,0 z M 192,44 l 4,0 0,4 -4,0 z M 196,44 l 4,0 0,4 -4,0 z M 208,44 l 4,0 0,4 -4,0 z M 216,44 l 4,0 0,4 -4,0 z M 220,44 l 4,0 0,4 -4,0 z M 224,44 l 4,0 0,4 -4,0 z M 232,44 l 4,0 0,4 -4,0 z M 236,44 l 4,0 0,4 -4,0 z M 240,44 l 4,0 0,4 -4,0 z M 12,48 l 4,0 0,4 -4,0 z M 20,48 l 4,0 0,4 -4,0 z M 24,48 l 4,0 0,4 -4,0 z M 32,48 l 4,0 0,4 -4,0 z M 36,48 l 4,0 0,4 -4,0 z M 44,48 l 4,0 0,4 -4,0 z M 48,48 l 4,0 0,4 -4,0 z M 52,48 l 4,0 0,4 -4,0 z M 56,48 l 4,0 0,4 -4,0 z M 64,48 l 4,0 0,4 -4,0 z M 72,48 l 4,0 0,4 -4,0 z M 80,48 l 4,0 0,4 -4,0 z M 84,48 l 4,0 0,4 -4,0 z M 92,48 l 4,0 0,4 -4,0 z M 108,48 l 4,0 0,4 -4,0 z M 112,48 l 4,0 0,4 -4,0 z M 120,48 l 4,0 0,4 -4,0 z M 132,48 l 4,0 0,4 -4,0 z M 136,48 l 4,0 0,4 -4,0 z M 148,48 l 4,0 0,4 -4,0 z M 156,48 l 4,0 0,4 -4,0 z M 160,48 l 4,0 0,4 -4,0 z M 164,48 l 4,0 0,4 -4,0 z M 168,48 l 4,0 0,4 -4,0 z M 172,48 l 4,0 0,4 -4,0 z M 176,48 l 4,0 0,4 -4,0 z M 188,48 l 4,0 0,4 -4,0 z M 224,48 l 4,0 0,4 -4,0 z M 228,48 l 4,0 0,4 -4,0 z M 236,48 l 4,0 0,4 -4,0 z M 240,48 l 4,0 0,4 -4,0 z M 4,52 l 4,0 0,4 -4,0 z M 12,52 l 4,0 0,4 -4,0 z M 20,52 l 4,0 0,4 -4,0 z M 32,52 l 4,0 0,4 -4,0 z M 36,52 l 4,0 0,4 -4,0 z M 44,52 l 4,0 0,4 -4,0 z M 48,52 l 4,0 0,4 -4,0 z M 52,52 l 4,0 0,4 -4,0 z M 72,52 l 4,0 0,4 -4,0 z M 80,52 l 4,0 0,4 -4,0 z M 88,52 l 4,0 0,4 -4,0 z M 100,52 l 4,0 0,4 -4,0 z M 108,52 l 4,0 0,4 -4,0 z M 112,52 l 4,0 0,4 -4,0 z M 116,52 l 4,0 0,4 -4,0 z M 120,52 l 4,0 0,4 -4,0 z M 132,52 l 4,0 0,4 -4,0 z M 136,52 l 4,0 0,4 -4,0 z M 140,52 l 4,0 0,4 -4,0 z M 144,52 l 4,0 0,4 -4,0 z M 152,52 l 4,0 0,4 -4,0 z M 156,52 l 4,0 0,4 -4,0 z M 160,52 l 4,0 0,4 -4,0 z M 168,52 l 4,0 0,4 -4,0 z M 180,52 l 4,0 0,4 -4,0 z M 184,52 l 4,0 0,4 -4,0 z M 192,52 l 4,0 0,4 -4,0 z M 208,52 l 4,0 0,4 -4,0 z M 212,52 l 4,0 0,4 -4,0 z M 220,52 l 4,0 0,4 -4,0 z M 232,52 l 4,0 0,4 -4,0 z M 0,56 l 4,0 0,4 -4,0 z M 4,56 l 4,0 0,4 -4,0 z M 12,56 l 4,0 0,4 -4,0 z M 20,56 l 4,0 0,4 -4,0 z M 24,56 l 4,0 0,4 -4,0 z M 36,56 l 4,0 0,4 -4,0 z M 40,56 l 4,0 0,4 -4,0 z M 44,56 l 4,0 0,4 -4,0 z M 48,56 l 4,0 0,4 -4,0 z M 64,56 l 4,0 0,4 -4,0 z M 68,56 l 4,0 0,4 -4,0 z M 76,56 l 4,0 0,4 -4,0 z M 84,56 l 4,0 0,4 -4,0 z M 92,56 l 4,0 0,4 -4,0 z M 108,56 l 4,0 0,4 -4,0 z M 116,56 l 4,0 0,4 -4,0 z M 120,56 l 4,0 0,4 -4,0 z M 128,56 l 4,0 0,4 -4,0 z M 136,56 l 4,0 0,4 -4,0 z M 144,56 l 4,0 0,4 -4,0 z M 148,56 l 4,0 0,4 -4,0 z M 152,56 l 4,0 0,4 -4,0 z M 156,56 l 4,0 0,4 -4,0 z M 172,56 l 4,0 0,4 -4,0 z M 176,56 l 4,0 0,4 -4,0 z M 184,56 l 4,0 0,4 -4,0 z M 188,56 l 4,0 0,4 -4,0 z M 192,56 l 4,0 0,4 -4,0 z M 196,56 l 4,0 0,4 -4,0 z M 204,56 l 4,0 0,4 -4,0 z M 220,56 l 4,0 0,4 -4,0 z M 8,60 l 4,0 0,4 -4,0 z M 12,60 l 4,0 0,4 -4,0 z M 20,60 l 4,0 0,4 -4,0 z M 32,60 l 4,0 0,4 -4,0 z M 36,60 l 4,0 0,4 -4,0 z M 48,60 l 4,0 0,4 -4,0 z M 52,60 l 4,0 0,4 -4,0 z M 76,60 l 4,0 0,4 -4,0 z M 80,60 l 4,0 0,4 -4,0 z M 96,60 l 4,0 0,4 -4,0 z M 104,60 l 4,0 0,4 -4,0 z M 112,60 l 4,0 0,4 -4,0 z M 124,60 l 4,0 0,4 -4,0 z M 132,60 l 4,0 0,4 -4,0 z M 136,60 l 4,0 0,4 -4,0 z M 144,60 l 4,0 0,4 -4,0 z M 168,60 l 4,0 0,4 -4,0 z M 180,60 l 4,0 0,4 -4,0 z M 192,60 l 4,0 0,4 -4,0 z M 196,60 l 4,0 0,4 -4,0 z M 200,60 l 4,0 0,4 -4,0 z M 212,60 l 4,0 0,4 -4,0 z M 220,60 l 4,0 0,4 -4,0 z M 232,60 l 4,0 0,4 -4,0 z M 236,60 l 4,0 0,4 -4,0 z M 240,60 l 4,0 0,4 -4,0 z M 24,64 l 4,0 0,4 -4,0 z M 28,64 l 4,0 0,4 -4,0 z M 32,64 l 4,0 0,4 -4,0 z M 36,64 l 4,0 0,4 -4,0 z M 48,64 l 4,0 0,4 -4,0 z M 68,64 l 4,0 0,4 -4,0 z M 72,64 l 4,0 0,4 -4,0 z M 76,64 l 4,0 0,4 -4,0 z M 80,64 l 4,0 0,4 -4,0 z M 96,64 l 4,0 0,4 -4,0 z M 104,64 l 4,0 0,4 -4,0 z M 120,64 l 4,0 0,4 -4,0 z M 128,64 l 4,0 0,4 -4,0 z M 152,64 l 4,0 0,4 -4,0 z M 156,64 l 4,0 0,4 -4,0 z M 168,64 l 4,0 0,4 -4,0 z M 172,64 l 4,0 0,4 -4,0 z M 180,64 l 4,0 0,4 -4,0 z M 192,64 l 4,0 0,4 -4,0 z M 208,64 l 4,0 0,4 -4,0 z M 212,64 l 4,0 0,4 -4,0 z M 216,64 l 4,0 0,4 -4,0 z M 220,64 l 4,0 0,4 -4,0 z M 224,64 l 4,0 0,4 -4,0 z M 240,64 l 4,0 0,4 -4,0 z M 4,68 l 4,0 0,4 -4,0 z M 20,68 l 4,0 0,4 -4,0 z M 32,68 l 4,0 0,4 -4,0 z M 52,68 l 4,0 0,4 -4,0 z M 60,68 l 4,0 0,4 -4,0 z M 84,68 l 4,0 0,4 -4,0 z M 96,68 l 4,0 0,4 -4,0 z M 104,68 l 4,0 0,4 -4,0 z M 112,68 l 4,0 0,4 -4,0 z M 116,68 l 4,0 0,4 -4,0 z M 120,68 l 4,0 0,4 -4,0 z M 124,68 l 4,0 0,4 -4,0 z M 128,68 l 4,0 0,4 -4,0 z M 132,68 l 4,0 0,4 -4,0 z M 136,68 l 4,0 0,4 -4,0 z M 140,68 l 4,0 0,4 -4,0 z M 144,68 l 4,0 0,4 -4,0 z M 156,68 l 4,0 0,4 -4,0 z M 160,68 l 4,0 0,4 -4,0 z M 164,68 l 4,0 0,4 -4,0 z M 172,68 l 4,0 0,4 -4,0 z M 180,68 l 4,0 0,4 -4,0 z M 188,68 l 4,0 0,4 -4,0 z M 192,68 l 4,0 0,4 -4,0 z M 196,68 l 4,0 0,4 -4,0 z M 200,68 l 4,0 0,4 -4,0 z M 220,68 l 4,0 0,4 -4,0 z M 240,68 l 4,0 0,4 -4,0 z M 8,72 l 4,0 0,4 -4,0 z M 12,72 l 4,0 0,4 -4,0 z M 20,72 l 4,0 0,4 -4,0 z M 24,72 l 4,0 0,4 -4,0 z M 32,72 l 4,0 0,4 -4,0 z M 40,72 l 4,0 0,4 -4,0 z M 44,72 l 4,0 0,4 -4,0 z M 48,72 l 4,0 0,4 -4,0 z M 52,72 l 4,0 0,4 -4,0 z M 72,72 l 4,0 0,4 -4,0 z M 96,72 l 4,0 0,4 -4,0 z M 100,72 l 4,0 0,4 -4,0 z M 108,72 l 4,0 0,4 -4,0 z M 128,72 l 4,0 0,4 -4,0 z M 132,72 l 4,0 0,4 -4,0 z M 140,72 l 4,0 0,4 -4,0 z M 144,72 l 4,0 0,4 -4,0 z M 172,72 l 4,0 0,4 -4,0 z M 180,72 l 4,0 0,4 -4,0 z M 192,72 l 4,0 0,4 -4,0 z M 212,72 l 4,0 0,4 -4,0 z M 224,72 l 4,0 0,4 -4,0 z M 236,72 l 4,0 0,4 -4,0 z M 12,76 l 4,0 0,4 -4,0 z M 16,76 l 4,0 0,4 -4,0 z M 20,76 l 4,0 0,4 -4,0 z M 28,76 l 4,0 0,4 -4,0 z M 32,76 l 4,0 0,4 -4,0 z M 36,76 l 4,0 0,4 -4,0 z M 60,76 l 4,0 0,4 -4,0 z M 68,76 l 4,0 0,4 -4,0 z M 72,76 l 4,0 0,4 -4,0 z M 80,76 l 4,0 0,4 -4,0 z M 84,76 l 4,0 0,4 -4,0 z M 96,76 l 4,0 0,4 -4,0 z M 100,76 l 4,0 0,4 -4,0 z M 108,76 l 4,0 0,4 -4,0 z M 112,76 l 4,0 0,4 -4,0 z M 116,76 l 4,0 0,4 -4,0 z M 120,76 l 4,0 0,4 -4,0 z M 124,76 l 4,0 0,4 -4,0 z M 128,76 l 4,0 0,4 -4,0 z M 156,76 l 4,0 0,4 -4,0 z M 160,76 l 4,0 0,4 -4,0 z M 164,76 l 4,0 0,4 -4,0 z M 180,76 l 4,0 0,4 -4,0 z M 192,76 l 4,0 0,4 -4,0 z M 196,76 l 4,0 0,4 -4,0 z M 204,76 l 4,0 0,4 -4,0 z M 224,76 l 4,0 0,4 -4,0 z M 228,76 l 4,0 0,4 -4,0 z M 232,76 l 4,0 0,4 -4,0 z M 236,76 l 4,0 0,4 -4,0 z M 240,76 l 4,0 0,4 -4,0 z M 0,80 l 4,0 0,4 -4,0 z M 8,80 l 4,0 0,4 -4,0 z M 24,80 l 4,0 0,4 -4,0 z M 68,80 l 4,0 0,4 -4,0 z M 104,80 l 4,0 0,4 -4,0 z M 108,80 l 4,0 0,4 -4,0 z M 112,80 l 4,0 0,4 -4,0 z M 116,80 l 4,0 0,4 -4,0 z M 120,80 l 4,0 0,4 -4,0 z M 128,80 l 4,0 0,4 -4,0 z M 144,80 l 4,0 0,4 -4,0 z M 160,80 l 4,0 0,4 -4,0 z M 168,80 l 4,0 0,4 -4,0 z M 172,80 l 4,0 0,4 -4,0 z M 176,80 l 4,0 0,4 -4,0 z M 184,80 l 4,0 0,4 -4,0 z M 188,80 l 4,0 0,4 -4,0 z M 196,80 l 4,0 0,4 -4,0 z M 208,80 l 4,0 0,4 -4,0 z M 216,80 l 4,0 0,4 -4,0 z M 220,80 l 4,0 0,4 -4,0 z M 232,80 l 4,0 0,4 -4,0 z M 236,80 l 4,0 0,4 -4,0 z M 240,80 l 4,0 0,4 -4,0 z M 4,84 l 4,0 0,4 -4,0 z M 16,84 l 4,0 0,4 -4,0 z M 28,84 l 4,0 0,4 -4,0 z M 36,84 l 4,0 0,4 -4,0 z M 40,84 l 4,0 0,4 -4,0 z M 52,84 l 4,0 0,4 -4,0 z M 64,84 l 4,0 0,4 -4,0 z M 68,84 l 4,0 0,4 -4,0 z M 72,84 l 4,0 0,4 -4,0 z M 76,84 l 4,0 0,4 -4,0 z M 92,84 l 4,0 0,4 -4,0 z M 108,84 l 4,0 0,4 -4,0 z M 116,84 l 4,0 0,4 -4,0 z M 120,84 l 4,0 0,4 -4,0 z M 124,84 l 4,0 0,4 -4,0 z M 128,84 l 4,0 0,4 -4,0 z M 132,84 l 4,0 0,4 -4,0 z M 136,84 l 4,0 0,4 -4,0 z M 140,84 l 4,0 0,4 -4,0 z M 152,84 l 4,0 0,4 -4,0 z M 156,84 l 4,0 0,4 -4,0 z M 164,84 l 4,0 0,4 -4,0 z M 172,84 l 4,0 0,4 -4,0 z M 176,84 l 4,0 0,4 -4,0 z M 180,84 l 4,0 0,4 -4,0 z M 184,84 l 4,0 0,4 -4,0 z M 188,84 l 4,0 0,4 -4,0 z M 192,84 l 4,0 0,4 -4,0 z M 200,84 l 4,0 0,4 -4,0 z M 204,84 l 4,0 0,4 -4,0 z M 208,84 l 4,0 0,4 -4,0 z M 224,84 l 4,0 0,4 -4,0 z M 228,84 l 4,0 0,4 -4,0 z M 236,84 l 4,0 0,4 -4,0 z M 240,84 l 4,0 0,4 -4,0 z M 0,88 l 4,0 0,4 -4,0 z M 4,88 l 4,0 0,4 -4,0 z M 8,88 l 4,0 0,4 -4,0 z M 16,88 l 4,0 0,4 -4,0 z M 20,88 l 4,0 0,4 -4,0 z M 24,88 l 4,0 0,4 -4,0 z M 28,88 l 4,0 0,4 -4,0 z M 32,88 l 4,0 0,4 -4,0 z M 36,88 l 4,0 0,4 -4,0 z M 48,88 l 4,0 0,4 -4,0 z M 68,88 l 4,0 0,4 -4,0 z M 76,88 l 4,0 0,4 -4,0 z M 80,88 l 4,0 0,4 -4,0 z M 84,88 l 4,0 0,4 -4,0 z M 88,88 l 4,0 0,4 -4,0 z M 96,88 l 4,0 0,4 -4,0 z M 100,88 l 4,0 0,4 -4,0 z M 104,88 l 4,0 0,4 -4,0 z M 108,88 l 4,0 0,4 -4,0 z M 128,88 l 4,0 0,4 -4,0 z M 140,88 l 4,0 0,4 -4,0 z M 144,88 l 4,0 0,4 -4,0 z M 148,88 l 4,0 0,4 -4,0 z M 152,88 l 4,0 0,4 -4,0 z M 160,88 l 4,0 0,4 -4,0 z M 184,88 l 4,0 0,4 -4,0 z M 192,88 l 4,0 0,4 -4,0 z M 196,88 l 4,0 0,4 -4,0 z M 200,88 l 4,0 0,4 -4,0 z M 204,88 l 4,0 0,4 -4,0 z M 212,88 l 4,0 0,4 -4,0 z M 220,88 l 4,0 0,4 -4,0 z M 0,92 l 4,0 0,4 -4,0 z M 4,92 l 4,0 0,4 -4,0 z M 12,92 l 4,0 0,4 -4,0 z M 20,92 l 4,0 0,4 -4,0 z M 40,92 l 4,0 0,4 -4,0 z M 44,92 l 4,0 0,4 -4,0 z M 48,92 l 4,0 0,4 -4,0 z M 56,92 l 4,0 0,4 -4,0 z M 64,92 l 4,0 0,4 -4,0 z M 76,92 l 4,0 0,4 -4,0 z M 104,92 l 4,0 0,4 -4,0 z M 120,92 l 4,0 0,4 -4,0 z M 124,92 l 4,0 0,4 -4,0 z M 128,92 l 4,0 0,4 -4,0 z M 148,92 l 4,0 0,4 -4,0 z M 152,92 l 4,0 0,4 -4,0 z M 156,92 l 4,0 0,4 -4,0 z M 160,92 l 4,0 0,4 -4,0 z M 164,92 l 4,0 0,4 -4,0 z M 168,92 l 4,0 0,4 -4,0 z M 176,92 l 4,0 0,4 -4,0 z M 180,92 l 4,0 0,4 -4,0 z M 184,92 l 4,0 0,4 -4,0 z M 196,92 l 4,0 0,4 -4,0 z M 216,92 l 4,0 0,4 -4,0 z M 0,96 l 4,0 0,4 -4,0 z M 8,96 l 4,0 0,4 -4,0 z M 20,96 l 4,0 0,4 -4,0 z M 24,96 l 4,0 0,4 -4,0 z M 40,96 l 4,0 0,4 -4,0 z M 60,96 l 4,0 0,4 -4,0 z M 64,96 l 4,0 0,4 -4,0 z M 68,96 l 4,0 0,4 -4,0 z M 76,96 l 4,0 0,4 -4,0 z M 84,96 l 4,0 0,4 -4,0 z M 104,96 l 4,0 0,4 -4,0 z M 112,96 l 4,0 0,4 -4,0 z M 116,96 l 4,0 0,4 -4,0 z M 148,96 l 4,0 0,4 -4,0 z M 160,96 l 4,0 0,4 -4,0 z M 176,96 l 4,0 0,4 -4,0 z M 200,96 l 4,0 0,4 -4,0 z M 204,96 l 4,0 0,4 -4,0 z M 216,96 l 4,0 0,4 -4,0 z M 220,96 l 4,0 0,4 -4,0 z M 228,96 l 4,0 0,4 -4,0 z M 236,96 l 4,0 0,4 -4,0 z M 240,96 l 4,0 0,4 -4,0 z M 0,100 l 4,0 0,4 -4,0 z M 4,100 l 4,0 0,4 -4,0 z M 12,100 l 4,0 0,4 -4,0 z M 16,100 l 4,0 0,4 -4,0 z M 28,100 l 4,0 0,4 -4,0 z M 32,100 l 4,0 0,4 -4,0 z M 36,100 l 4,0 0,4 -4,0 z M 44,100 l 4,0 0,4 -4,0 z M 48,100 l 4,0 0,4 -4,0 z M 52,100 l 4,0 0,4 -4,0 z M 60,100 l 4,0 0,4 -4,0 z M 72,100 l 4,0 0,4 -4,0 z M 84,100 l 4,0 0,4 -4,0 z M 88,100 l 4,0 0,4 -4,0 z M 100,100 l 4,0 0,4 -4,0 z M 104,100 l 4,0 0,4 -4,0 z M 120,100 l 4,0 0,4 -4,0 z M 124,100 l 4,0 0,4 -4,0 z M 144,100 l 4,0 0,4 -4,0 z M 152,100 l 4,0 0,4 -4,0 z M 156,100 l 4,0 0,4 -4,0 z M 168,100 l 4,0 0,4 -4,0 z M 172,100 l 4,0 0,4 -4,0 z M 176,100 l 4,0 0,4 -4,0 z M 180,100 l 4,0 0,4 -4,0 z M 184,100 l 4,0 0,4 -4,0 z M 188,100 l 4,0 0,4 -4,0 z M 192,100 l 4,0 0,4 -4,0 z M 196,100 l 4,0 0,4 -4,0 z M 208,100 l 4,0 0,4 -4,0 z M 216,100 l 4,0 0,4 -4,0 z M 220,100 l 4,0 0,4 -4,0 z M 224,100 l 4,0 0,4 -4,0 z M 228,100 l 4,0 0,4 -4,0 z M 236,100 l 4,0 0,4 -4,0 z M 0,104 l 4,0 0,4 -4,0 z M 4,104 l 4,0 0,4 -4,0 z M 12,104 l 4,0 0,4 -4,0 z M 20,104 l 4,0 0,4 -4,0 z M 24,104 l 4,0 0,4 -4,0 z M 32,104 l 4,0 0,4 -4,0 z M 44,104 l 4,0 0,4 -4,0 z M 48,104 l 4,0 0,4 -4,0 z M 52,104 l 4,0 0,4 -4,0 z M 60,104 l 4,0 0,4 -4,0 z M 64,104 l 4,0 0,4 -4,0 z M 72,104 l 4,0 0,4 -4,0 z M 76,104 l 4,0 0,4 -4,0 z M 88,104 l 4,0 0,4 -4,0 z M 92,104 l 4,0 0,4 -4,0 z M 96,104 l 4,0 0,4 -4,0 z M 100,104 l 4,0 0,4 -4,0 z M 108,104 l 4,0 0,4 -4,0 z M 116,104 l 4,0 0,4 -4,0 z M 120,104 l 4,0 0,4 -4,0 z M 124,104 l 4,0 0,4 -4,0 z M 128,104 l 4,0 0,4 -4,0 z M 136,104 l 4,0 0,4 -4,0 z M 144,104 l 4,0 0,4 -4,0 z M 148,104 l 4,0 0,4 -4,0 z M 156,104 l 4,0 0,4 -4,0 z M 180,104 l 4,0 0,4 -4,0 z M 188,104 l 4,0 0,4 -4,0 z M 200,104 l 4,0 0,4 -4,0 z M 216,104 l 4,0 0,4 -4,0 z M 220,104 l 4,0 0,4 -4,0 z M 228,104 l 4,0 0,4 -4,0 z M 232,104 l 4,0 0,4 -4,0 z M 236,104 l 4,0 0,4 -4,0 z M 0,108 l 4,0 0,4 -4,0 z M 4,108 l 4,0 0,4 -4,0 z M 8,108 l 4,0 0,4 -4,0 z M 20,108 l 4,0 0,4 -4,0 z M 28,108 l 4,0 0,4 -4,0 z M 32,108 l 4,0 0,4 -4,0 z M 36,108 l 4,0 0,4 -4,0 z M 52,108 l 4,0 0,4 -4,0 z M 60,108 l 4,0 0,4 -4,0 z M 68,108 l 4,0 0,4 -4,0 z M 92,108 l 4,0 0,4 -4,0 z M 104,108 l 4,0 0,4 -4,0 z M 116,108 l 4,0 0,4 -4,0 z M 124,108 l 4,0 0,4 -4,0 z M 132,108 l 4,0 0,4 -4,0 z M 140,108 l 4,0 0,4 -4,0 z M 144,108 l 4,0 0,4 -4,0 z M 148,108 l 4,0 0,4 -4,0 z M 152,108 l 4,0 0,4 -4,0 z M 160,108 l 4,0 0,4 -4,0 z M 164,108 l 4,0 0,4 -4,0 z M 168,108 l 4,0 0,4 -4,0 z M 176,108 l 4,0 0,4 -4,0 z M 180,108 l 4,0 0,4 -4,0 z M 184,108 l 4,0 0,4 -4,0 z M 188,108 l 4,0 0,4 -4,0 z M 196,108 l 4,0 0,4 -4,0 z M 204,108 l 4,0 0,4 -4,0 z M 208,108 l 4,0 0,4 -4,0 z M 212,108 l 4,0 0,4 -4,0 z M 216,108 l 4,0 0,4 -4,0 z M 224,108 l 4,0 0,4 -4,0 z M 232,108 l 4,0 0,4 -4,0 z M 236,108 l 4,0 0,4 -4,0 z M 0,112 l 4,0 0,4 -4,0 z M 8,112 l 4,0 0,4 -4,0 z M 12,112 l 4,0 0,4 -4,0 z M 16,112 l 4,0 0,4 -4,0 z M 20,112 l 4,0 0,4 -4,0 z M 24,112 l 4,0 0,4 -4,0 z M 28,112 l 4,0 0,4 -4,0 z M 32,112 l 4,0 0,4 -4,0 z M 40,112 l 4,0 0,4 -4,0 z M 44,112 l 4,0 0,4 -4,0 z M 52,112 l 4,0 0,4 -4,0 z M 64,112 l 4,0 0,4 -4,0 z M 80,112 l 4,0 0,4 -4,0 z M 96,112 l 4,0 0,4 -4,0 z M 100,112 l 4,0 0,4 -4,0 z M 104,112 l 4,0 0,4 -4,0 z M 108,112 l 4,0 0,4 -4,0 z M 112,112 l 4,0 0,4 -4,0 z M 116,112 l 4,0 0,4 -4,0 z M 120,112 l 4,0 0,4 -4,0 z M 124,112 l 4,0 0,4 -4,0 z M 128,112 l 4,0 0,4 -4,0 z M 132,112 l 4,0 0,4 -4,0 z M 144,112 l 4,0 0,4 -4,0 z M 148,112 l 4,0 0,4 -4,0 z M 156,112 l 4,0 0,4 -4,0 z M 160,112 l 4,0 0,4 -4,0 z M 164,112 l 4,0 0,4 -4,0 z M 172,112 l 4,0 0,4 -4,0 z M 176,112 l 4,0 0,4 -4,0 z M 188,112 l 4,0 0,4 -4,0 z M 208,112 l 4,0 0,4 -4,0 z M 212,112 l 4,0 0,4 -4,0 z M 216,112 l 4,0 0,4 -4,0 z M 220,112 l 4,0 0,4 -4,0 z M 224,112 l 4,0 0,4 -4,0 z M 236,112 l 4,0 0,4 -4,0 z M 240,112 l 4,0 0,4 -4,0 z M 0,116 l 4,0 0,4 -4,0 z M 12,116 l 4,0 0,4 -4,0 z M 16,116 l 4,0 0,4 -4,0 z M 32,116 l 4,0 0,4 -4,0 z M 44,116 l 4,0 0,4 -4,0 z M 48,116 l 4,0 0,4 -4,0 z M 56,116 l 4,0 0,4 -4,0 z M 76,116 l 4,0 0,4 -4,0 z M 80,116 l 4,0 0,4 -4,0 z M 84,116 l 4,0 0,4 -4,0 z M 92,116 l 4,0 0,4 -4,0 z M 104,116 l 4,0 0,4 -4,0 z M 108,116 l 4,0 0,4 -4,0 z M 112,116 l 4,0 0,4 -4,0 z M 128,116 l 4,0 0,4 -4,0 z M 132,116 l 4,0 0,4 -4,0 z M 136,116 l 4,0 0,4 -4,0 z M 140,116 l 4,0 0,4 -4,0 z M 144,116 l 4,0 0,4 -4,0 z M 152,116 l 4,0 0,4 -4,0 z M 164,116 l 4,0 0,4 -4,0 z M 168,116 l 4,0 0,4 -4,0 z M 180,116 l 4,0 0,4 -4,0 z M 184,116 l 4,0 0,4 -4,0 z M 192,116 l 4,0 0,4 -4,0 z M 200,116 l 4,0 0,4 -4,0 z M 204,116 l 4,0 0,4 -4,0 z M 208,116 l 4,0 0,4 -4,0 z M 224,116 l 4,0 0,4 -4,0 z M 228,116 l 4,0 0,4 -4,0 z M 236,116 l 4,0 0,4 -4,0 z M 8,120 l 4,0 0,4 -4,0 z M 12,120 l 4,0 0,4 -4,0 z M 16,120 l 4,0 0,4 -4,0 z M 24,120 l 4,0 0,4 -4,0 z M 32,120 l 4,0 0,4 -4,0 z M 36,120 l 4,0 0,4 -4,0 z M 40,120 l 4,0 0,4 -4,0 z M 52,120 l 4,0 0,4 -4,0 z M 56,120 l 4,0 0,4 -4,0 z M 64,120 l 4,0 0,4 -4,0 z M 84,120 l 4,0 0,4 -4,0 z M 96,120 l 4,0 0,4 -4,0 z M 100,120 l 4,0 0,4 -4,0 z M 108,120 l 4,0 0,4 -4,0 z M 112,120 l 4,0 0,4 -4,0 z M 120,120 l 4,0 0,4 -4,0 z M 128,120 l 4,0 0,4 -4,0 z M 136,120 l 4,0 0,4 -4,0 z M 144,120 l 4,0 0,4 -4,0 z M 156,120 l 4,0 0,4 -4,0 z M 160,120 l 4,0 0,4 -4,0 z M 176,120 l 4,0 0,4 -4,0 z M 188,120 l 4,0 0,4 -4,0 z M 192,120 l 4,0 0,4 -4,0 z M 196,120 l 4,0 0,4 -4,0 z M 208,120 l 4,0 0,4 -4,0 z M 216,120 l 4,0 0,4 -4,0 z M 224,120 l 4,0 0,4 -4,0 z M 0,124 l 4,0 0,4 -4,0 z M 4,124 l 4,0 0,4 -4,0 z M 12,124 l 4,0 0,4 -4,0 z M 16,124 l 4,0 0,4 -4,0 z M 32,124 l 4,0 0,4 -4,0 z M 40,124 l 4,0 0,4 -4,0 z M 44,124 l 4,0 0,4 -4,0 z M 48,124 l 4,0 0,4 -4,0 z M 56,124 l 4,0 0,4 -4,0 z M 68,124 l 4,0 0,4 -4,0 z M 76,124 l 4,0 0,4 -4,0 z M 80,124 l 4,0 0,4 -4,0 z M 84,124 l 4,0 0,4 -4,0 z M 92,124 l 4,0 0,4 -4,0 z M 96,124 l 4,0 0,4 -4,0 z M 104,124 l 4,0 0,4 -4,0 z M 108,124 l 4,0 0,4 -4,0 z M 112,124 l 4,0 0,4 -4,0 z M 128,124 l 4,0 0,4 -4,0 z M 136,124 l 4,0 0,4 -4,0 z M 140,124 l 4,0 0,4 -4,0 z M 144,124 l 4,0 0,4 -4,0 z M 148,124 l 4,0 0,4 -4,0 z M 172,124 l 4,0 0,4 -4,0 z M 196,124 l 4,0 0,4 -4,0 z M 204,124 l 4,0 0,4 -4,0 z M 208,124 l 4,0 0,4 -4,0 z M 224,124 l 4,0 0,4 -4,0 z M 228,124 l 4,0 0,4 -4,0 z M 232,124 l 4,0 0,4 -4,0 z M 236,124 l 4,0 0,4 -4,0 z M 240,124 l 4,0 0,4 -4,0 z M 0,128 l 4,0 0,4 -4,0 z M 8,128 l 4,0 0,4 -4,0 z M 16,128 l 4,0 0,4 -4,0 z M 20,128 l 4,0 0,4 -4,0 z M 24,128 l 4,0 0,4 -4,0 z M 28,128 l 4,0 0,4 -4,0 z M 32,128 l 4,0 0,4 -4,0 z M 48,128 l 4,0 0,4 -4,0 z M 56,128 l 4,0 0,4 -4,0 z M 60,128 l 4,0 0,4 -4,0 z M 72,128 l 4,0 0,4 -4,0 z M 80,128 l 4,0 0,4 -4,0 z M 84,128 l 4,0 0,4 -4,0 z M 96,128 l 4,0 0,4 -4,0 z M 104,128 l 4,0 0,4 -4,0 z M 112,128 l 4,0 0,4 -4,0 z M 116,128 l 4,0 0,4 -4,0 z M 120,128 l 4,0 0,4 -4,0 z M 124,128 l 4,0 0,4 -4,0 z M 128,128 l 4,0 0,4 -4,0 z M 140,128 l 4,0 0,4 -4,0 z M 148,128 l 4,0 0,4 -4,0 z M 156,128 l 4,0 0,4 -4,0 z M 160,128 l 4,0 0,4 -4,0 z M 164,128 l 4,0 0,4 -4,0 z M 168,128 l 4,0 0,4 -4,0 z M 172,128 l 4,0 0,4 -4,0 z M 192,128 l 4,0 0,4 -4,0 z M 196,128 l 4,0 0,4 -4,0 z M 204,128 l 4,0 0,4 -4,0 z M 208,128 l 4,0 0,4 -4,0 z M 212,128 l 4,0 0,4 -4,0 z M 216,128 l 4,0 0,4 -4,0 z M 220,128 l 4,0 0,4 -4,0 z M 224,128 l 4,0 0,4 -4,0 z M 228,128 l 4,0 0,4 -4,0 z M 232,128 l 4,0 0,4 -4,0 z M 0,132 l 4,0 0,4 -4,0 z M 4,132 l 4,0 0,4 -4,0 z M 8,132 l 4,0 0,4 -4,0 z M 12,132 l 4,0 0,4 -4,0 z M 16,132 l 4,0 0,4 -4,0 z M 28,132 l 4,0 0,4 -4,0 z M 32,132 l 4,0 0,4 -4,0 z M 36,132 l 4,0 0,4 -4,0 z M 40,132 l 4,0 0,4 -4,0 z M 48,132 l 4,0 0,4 -4,0 z M 52,132 l 4,0 0,4 -4,0 z M 56,132 l 4,0 0,4 -4,0 z M 64,132 l 4,0 0,4 -4,0 z M 76,132 l 4,0 0,4 -4,0 z M 84,132 l 4,0 0,4 -4,0 z M 104,132 l 4,0 0,4 -4,0 z M 108,132 l 4,0 0,4 -4,0 z M 120,132 l 4,0 0,4 -4,0 z M 124,132 l 4,0 0,4 -4,0 z M 128,132 l 4,0 0,4 -4,0 z M 132,132 l 4,0 0,4 -4,0 z M 136,132 l 4,0 0,4 -4,0 z M 140,132 l 4,0 0,4 -4,0 z M 144,132 l 4,0 0,4 -4,0 z M 148,132 l 4,0 0,4 -4,0 z M 156,132 l 4,0 0,4 -4,0 z M 160,132 l 4,0 0,4 -4,0 z M 172,132 l 4,0 0,4 -4,0 z M 180,132 l 4,0 0,4 -4,0 z M 204,132 l 4,0 0,4 -4,0 z M 208,132 l 4,0 0,4 -4,0 z M 224,132 l 4,0 0,4 -4,0 z M 228,132 l 4,0 0,4 -4,0 z M 232,132 l 4,0 0,4 -4,0 z M 240,132 l 4,0 0,4 -4,0 z M 4,136 l 4,0 0,4 -4,0 z M 12,136 l 4,0 0,4 -4,0 z M 20,136 l 4,0 0,4 -4,0 z M 24,136 l 4,0 0,4 -4,0 z M 28,136 l 4,0 0,4 -4,0 z M 32,136 l 4,0 0,4 -4,0 z M 48,136 l 4,0 0,4 -4,0 z M 60,136 l 4,0 0,4 -4,0 z M 64,136 l 4,0 0,4 -4,0 z M 72,136 l 4,0 0,4 -4,0 z M 76,136 l 4,0 0,4 -4,0 z M 104,136 l 4,0 0,4 -4,0 z M 112,136 l 4,0 0,4 -4,0 z M 116,136 l 4,0 0,4 -4,0 z M 128,136 l 4,0 0,4 -4,0 z M 136,136 l 4,0 0,4 -4,0 z M 144,136 l 4,0 0,4 -4,0 z M 148,136 l 4,0 0,4 -4,0 z M 152,136 l 4,0 0,4 -4,0 z M 176,136 l 4,0 0,4 -4,0 z M 180,136 l 4,0 0,4 -4,0 z M 188,136 l 4,0 0,4 -4,0 z M 204,136 l 4,0 0,4 -4,0 z M 212,136 l 4,0 0,4 -4,0 z M 216,136 l 4,0 0,4 -4,0 z M 220,136 l 4,0 0,4 -4,0 z M 4,140 l 4,0 0,4 -4,0 z M 8,140 l 4,0 0,4 -4,0 z M 16,140 l 4,0 0,4 -4,0 z M 20,140 l 4,0 0,4 -4,0 z M 28,140 l 4,0 0,4 -4,0 z M 32,140 l 4,0 0,4 -4,0 z M 40,140 l 4,0 0,4 -4,0 z M 44,140 l 4,0 0,4 -4,0 z M 52,140 l 4,0 0,4 -4,0 z M 56,140 l 4,0 0,4 -4,0 z M 64,140 l 4,0 0,4 -4,0 z M 68,140 l 4,0 0,4 -4,0 z M 72,140 l 4,0 0,4 -4,0 z M 80,140 l 4,0 0,4 -4,0 z M 84,140 l 4,0 0,4 -4,0 z M 108,140 l 4,0 0,4 -4,0 z M 116,140 l 4,0 0,4 -4,0 z M 120,140 l 4,0 0,4 -4,0 z M 124,140 l 4,0 0,4 -4,0 z M 128,140 l 4,0 0,4 -4,0 z M 136,140 l 4,0 0,4 -4,0 z M 140,140 l 4,0 0,4 -4,0 z M 152,140 l 4,0 0,4 -4,0 z M 164,140 l 4,0 0,4 -4,0 z M 172,140 l 4,0 0,4 -4,0 z M 180,140 l 4,0 0,4 -4,0 z M 192,140 l 4,0 0,4 -4,0 z M 200,140 l 4,0 0,4 -4,0 z M 204,140 l 4,0 0,4 -4,0 z M 216,140 l 4,0 0,4 -4,0 z M 228,140 l 4,0 0,4 -4,0 z M 232,140 l 4,0 0,4 -4,0 z M 236,140 l 4,0 0,4 -4,0 z M 240,140 l 4,0 0,4 -4,0 z M 8,144 l 4,0 0,4 -4,0 z M 16,144 l 4,0 0,4 -4,0 z M 24,144 l 4,0 0,4 -4,0 z M 36,144 l 4,0 0,4 -4,0 z M 48,144 l 4,0 0,4 -4,0 z M 64,144 l 4,0 0,4 -4,0 z M 68,144 l 4,0 0,4 -4,0 z M 88,144 l 4,0 0,4 -4,0 z M 96,144 l 4,0 0,4 -4,0 z M 112,144 l 4,0 0,4 -4,0 z M 116,144 l 4,0 0,4 -4,0 z M 124,144 l 4,0 0,4 -4,0 z M 148,144 l 4,0 0,4 -4,0 z M 156,144 l 4,0 0,4 -4,0 z M 168,144 l 4,0 0,4 -4,0 z M 176,144 l 4,0 0,4 -4,0 z M 180,144 l 4,0 0,4 -4,0 z M 184,144 l 4,0 0,4 -4,0 z M 188,144 l 4,0 0,4 -4,0 z M 204,144 l 4,0 0,4 -4,0 z M 212,144 l 4,0 0,4 -4,0 z M 220,144 l 4,0 0,4 -4,0 z M 224,144 l 4,0 0,4 -4,0 z M 228,144 l 4,0 0,4 -4,0 z M 232,144 l 4,0 0,4 -4,0 z M 12,148 l 4,0 0,4 -4,0 z M 16,148 l 4,0 0,4 -4,0 z M 28,148 l 4,0 0,4 -4,0 z M 40,148 l 4,0 0,4 -4,0 z M 48,148 l 4,0 0,4 -4,0 z M 52,148 l 4,0 0,4 -4,0 z M 60,148 l 4,0 0,4 -4,0 z M 64,148 l 4,0 0,4 -4,0 z M 72,148 l 4,0 0,4 -4,0 z M 80,148 l 4,0 0,4 -4,0 z M 84,148 l 4,0 0,4 -4,0 z M 92,148 l 4,0 0,4 -4,0 z M 96,148 l 4,0 0,4 -4,0 z M 104,148 l 4,0 0,4 -4,0 z M 120,148 l 4,0 0,4 -4,0 z M 124,148 l 4,0 0,4 -4,0 z M 128,148 l 4,0 0,4 -4,0 z M 132,148 l 4,0 0,4 -4,0 z M 136,148 l 4,0 0,4 -4,0 z M 144,148 l 4,0 0,4 -4,0 z M 152,148 l 4,0 0,4 -4,0 z M 168,148 l 4,0 0,4 -4,0 z M 176,148 l 4,0 0,4 -4,0 z M 180,148 l 4,0 0,4 -4,0 z M 188,148 l 4,0 0,4 -4,0 z M 192,148 l 4,0 0,4 -4,0 z M 200,148 l 4,0 0,4 -4,0 z M 212,148 l 4,0 0,4 -4,0 z M 216,148 l 4,0 0,4 -4,0 z M 224,148 l 4,0 0,4 -4,0 z M 228,148 l 4,0 0,4 -4,0 z M 236,148 l 4,0 0,4 -4,0 z M 240,148 l 4,0 0,4 -4,0 z M 4,152 l 4,0 0,4 -4,0 z M 16,152 l 4,0 0,4 -4,0 z M 24,152 l 4,0 0,4 -4,0 z M 40,152 l 4,0 0,4 -4,0 z M 60,152 l 4,0 0,4 -4,0 z M 72,152 l 4,0 0,4 -4,0 z M 80,152 l 4,0 0,4 -4,0 z M 92,152 l 4,0 0,4 -4,0 z M 96,152 l 4,0 0,4 -4,0 z M 100,152 l 4,0 0,4 -4,0 z M 108,152 l 4,0 0,4 -4,0 z M 116,152 l 4,0 0,4 -4,0 z M 120,152 l 4,0 0,4 -4,0 z M 124,152 l 4,0 0,4 -4,0 z M 128,152 l 4,0 0,4 -4,0 z M 136,152 l 4,0 0,4 -4,0 z M 144,152 l 4,0 0,4 -4,0 z M 148,152 l 4,0 0,4 -4,0 z M 152,152 l 4,0 0,4 -4,0 z M 156,152 l 4,0 0,4 -4,0 z M 160,152 l 4,0 0,4 -4,0 z M 172,152 l 4,0 0,4 -4,0 z M 180,152 l 4,0 0,4 -4,0 z M 188,152 l 4,0 0,4 -4,0 z M 192,152 l 4,0 0,4 -4,0 z M 196,152 l 4,0 0,4 -4,0 z M 200,152 l 4,0 0,4 -4,0 z M 204,152 l 4,0 0,4 -4,0 z M 208,152 l 4,0 0,4 -4,0 z M 232,152 l 4,0 0,4 -4,0 z M 240,152 l 4,0 0,4 -4,0 z M 0,156 l 4,0 0,4 -4,0 z M 16,156 l 4,0 0,4 -4,0 z M 20,156 l 4,0 0,4 -4,0 z M 28,156 l 4,0 0,4 -4,0 z M 36,156 l 4,0 0,4 -4,0 z M 48,156 l 4,0 0,4 -4,0 z M 56,156 l 4,0 0,4 -4,0 z M 64,156 l 4,0 0,4 -4,0 z M 68,156 l 4,0 0,4 -4,0 z M 72,156 l 4,0 0,4 -4,0 z M 76,156 l 4,0 0,4 -4,0 z M 96,156 l 4,0 0,4 -4,0 z M 100,156 l 4,0 0,4 -4,0 z M 128,156 l 4,0 0,4 -4,0 z M 148,156 l 4,0 0,4 -4,0 z M 152,156 l 4,0 0,4 -4,0 z M 156,156 l 4,0 0,4 -4,0 z M 164,156 l 4,0 0,4 -4,0 z M 168,156 l 4,0 0,4 -4,0 z M 176,156 l 4,0 0,4 -4,0 z M 184,156 l 4,0 0,4 -4,0 z M 192,156 l 4,0 0,4 -4,0 z M 196,156 l 4,0 0,4 -4,0 z M 200,156 l 4,0 0,4 -4,0 z M 212,156 l 4,0 0,4 -4,0 z M 224,156 l 4,0 0,4 -4,0 z M 8,160 l 4,0 0,4 -4,0 z M 12,160 l 4,0 0,4 -4,0 z M 24,160 l 4,0 0,4 -4,0 z M 28,160 l 4,0 0,4 -4,0 z M 40,160 l 4,0 0,4 -4,0 z M 44,160 l 4,0 0,4 -4,0 z M 60,160 l 4,0 0,4 -4,0 z M 72,160 l 4,0 0,4 -4,0 z M 84,160 l 4,0 0,4 -4,0 z M 88,160 l 4,0 0,4 -4,0 z M 92,160 l 4,0 0,4 -4,0 z M 96,160 l 4,0 0,4 -4,0 z M 100,160 l 4,0 0,4 -4,0 z M 104,160 l 4,0 0,4 -4,0 z M 108,160 l 4,0 0,4 -4,0 z M 112,160 l 4,0 0,4 -4,0 z M 120,160 l 4,0 0,4 -4,0 z M 128,160 l 4,0 0,4 -4,0 z M 132,160 l 4,0 0,4 -4,0 z M 136,160 l 4,0 0,4 -4,0 z M 140,160 l 4,0 0,4 -4,0 z M 144,160 l 4,0 0,4 -4,0 z M 148,160 l 4,0 0,4 -4,0 z M 160,160 l 4,0 0,4 -4,0 z M 172,160 l 4,0 0,4 -4,0 z M 176,160 l 4,0 0,4 -4,0 z M 196,160 l 4,0 0,4 -4,0 z M 208,160 l 4,0 0,4 -4,0 z M 232,160 l 4,0 0,4 -4,0 z M 236,160 l 4,0 0,4 -4,0 z M 240,160 l 4,0 0,4 -4,0 z M 0,164 l 4,0 0,4 -4,0 z M 4,164 l 4,0 0,4 -4,0 z M 16,164 l 4,0 0,4 -4,0 z M 20,164 l 4,0 0,4 -4,0 z M 28,164 l 4,0 0,4 -4,0 z M 52,164 l 4,0 0,4 -4,0 z M 56,164 l 4,0 0,4 -4,0 z M 60,164 l 4,0 0,4 -4,0 z M 68,164 l 4,0 0,4 -4,0 z M 72,164 l 4,0 0,4 -4,0 z M 76,164 l 4,0 0,4 -4,0 z M 80,164 l 4,0 0,4 -4,0 z M 96,164 l 4,0 0,4 -4,0 z M 100,164 l 4,0 0,4 -4,0 z M 104,164 l 4,0 0,4 -4,0 z M 124,164 l 4,0 0,4 -4,0 z M 136,164 l 4,0 0,4 -4,0 z M 152,164 l 4,0 0,4 -4,0 z M 168,164 l 4,0 0,4 -4,0 z M 180,164 l 4,0 0,4 -4,0 z M 184,164 l 4,0 0,4 -4,0 z M 188,164 l 4,0 0,4 -4,0 z M 192,164 l 4,0 0,4 -4,0 z M 200,164 l 4,0 0,4 -4,0 z M 204,164 l 4,0 0,4 -4,0 z M 208,164 l 4,0 0,4 -4,0 z M 212,164 l 4,0 0,4 -4,0 z M 216,164 l 4,0 0,4 -4,0 z M 220,164 l 4,0 0,4 -4,0 z M 224,164 l 4,0 0,4 -4,0 z M 0,168 l 4,0 0,4 -4,0 z M 4,168 l 4,0 0,4 -4,0 z M 12,168 l 4,0 0,4 -4,0 z M 16,168 l 4,0 0,4 -4,0 z M 20,168 l 4,0 0,4 -4,0 z M 24,168 l 4,0 0,4 -4,0 z M 32,168 l 4,0 0,4 -4,0 z M 36,168 l 4,0 0,4 -4,0 z M 48,168 l 4,0 0,4 -4,0 z M 52,168 l 4,0 0,4 -4,0 z M 56,168 l 4,0 0,4 -4,0 z M 60,168 l 4,0 0,4 -4,0 z M 72,168 l 4,0 0,4 -4,0 z M 80,168 l 4,0 0,4 -4,0 z M 84,168 l 4,0 0,4 -4,0 z M 88,168 l 4,0 0,4 -4,0 z M 108,168 l 4,0 0,4 -4,0 z M 112,168 l 4,0 0,4 -4,0 z M 120,168 l 4,0 0,4 -4,0 z M 128,168 l 4,0 0,4 -4,0 z M 136,168 l 4,0 0,4 -4,0 z M 140,168 l 4,0 0,4 -4,0 z M 144,168 l 4,0 0,4 -4,0 z M 152,168 l 4,0 0,4 -4,0 z M 156,168 l 4,0 0,4 -4,0 z M 164,168 l 4,0 0,4 -4,0 z M 168,168 l 4,0 0,4 -4,0 z M 172,168 l 4,0 0,4 -4,0 z M 184,168 l 4,0 0,4 -4,0 z M 188,168 l 4,0 0,4 -4,0 z M 196,168 l 4,0 0,4 -4,0 z M 200,168 l 4,0 0,4 -4,0 z M 208,168 l 4,0 0,4 -4,0 z M 224,168 l 4,0 0,4 -4,0 z M 232,168 l 4,0 0,4 -4,0 z M 236,168 l 4,0 0,4 -4,0 z M 240,168 l 4,0 0,4 -4,0 z M 0,172 l 4,0 0,4 -4,0 z M 4,172 l 4,0 0,4 -4,0 z M 8,172 l 4,0 0,4 -4,0 z M 28,172 l 4,0 0,4 -4,0 z M 44,172 l 4,0 0,4 -4,0 z M 48,172 l 4,0 0,4 -4,0 z M 52,172 l 4,0 0,4 -4,0 z M 56,172 l 4,0 0,4 -4,0 z M 60,172 l 4,0 0,4 -4,0 z M 76,172 l 4,0 0,4 -4,0 z M 80,172 l 4,0 0,4 -4,0 z M 92,172 l 4,0 0,4 -4,0 z M 96,172 l 4,0 0,4 -4,0 z M 112,172 l 4,0 0,4 -4,0 z M 116,172 l 4,0 0,4 -4,0 z M 124,172 l 4,0 0,4 -4,0 z M 144,172 l 4,0 0,4 -4,0 z M 148,172 l 4,0 0,4 -4,0 z M 152,172 l 4,0 0,4 -4,0 z M 160,172 l 4,0 0,4 -4,0 z M 168,172 l 4,0 0,4 -4,0 z M 184,172 l 4,0 0,4 -4,0 z M 192,172 l 4,0 0,4 -4,0 z M 196,172 l 4,0 0,4 -4,0 z M 216,172 l 4,0 0,4 -4,0 z M 220,172 l 4,0 0,4 -4,0 z M 236,172 l 4,0 0,4 -4,0 z M 240,172 l 4,0 0,4 -4,0 z M 16,176 l 4,0 0,4 -4,0 z M 24,176 l 4,0 0,4 -4,0 z M 44,176 l 4,0 0,4 -4,0 z M 64,176 l 4,0 0,4 -4,0 z M 68,176 l 4,0 0,4 -4,0 z M 80,176 l 4,0 0,4 -4,0 z M 84,176 l 4,0 0,4 -4,0 z M 92,176 l 4,0 0,4 -4,0 z M 96,176 l 4,0 0,4 -4,0 z M 104,176 l 4,0 0,4 -4,0 z M 108,176 l 4,0 0,4 -4,0 z M 120,176 l 4,0 0,4 -4,0 z M 128,176 l 4,0 0,4 -4,0 z M 132,176 l 4,0 0,4 -4,0 z M 148,176 l 4,0 0,4 -4,0 z M 156,176 l 4,0 0,4 -4,0 z M 176,176 l 4,0 0,4 -4,0 z M 216,176 l 4,0 0,4 -4,0 z M 220,176 l 4,0 0,4 -4,0 z M 224,176 l 4,0 0,4 -4,0 z M 232,176 l 4,0 0,4 -4,0 z M 240,176 l 4,0 0,4 -4,0 z M 0,180 l 4,0 0,4 -4,0 z M 4,180 l 4,0 0,4 -4,0 z M 8,180 l 4,0 0,4 -4,0 z M 20,180 l 4,0 0,4 -4,0 z M 28,180 l 4,0 0,4 -4,0 z M 32,180 l 4,0 0,4 -4,0 z M 36,180 l 4,0 0,4 -4,0 z M 44,180 l 4,0 0,4 -4,0 z M 52,180 l 4,0 0,4 -4,0 z M 68,180 l 4,0 0,4 -4,0 z M 76,180 l 4,0 0,4 -4,0 z M 80,180 l 4,0 0,4 -4,0 z M 84,180 l 4,0 0,4 -4,0 z M 88,180 l 4,0 0,4 -4,0 z M 92,180 l 4,0 0,4 -4,0 z M 96,180 l 4,0 0,4 -4,0 z M 104,180 l 4,0 0,4 -4,0 z M 108,180 l 4,0 0,4 -4,0 z M 116,180 l 4,0 0,4 -4,0 z M 120,180 l 4,0 0,4 -4,0 z M 124,180 l 4,0 0,4 -4,0 z M 132,180 l 4,0 0,4 -4,0 z M 136,180 l 4,0 0,4 -4,0 z M 144,180 l 4,0 0,4 -4,0 z M 152,180 l 4,0 0,4 -4,0 z M 168,180 l 4,0 0,4 -4,0 z M 172,180 l 4,0 0,4 -4,0 z M 184,180 l 4,0 0,4 -4,0 z M 192,180 l 4,0 0,4 -4,0 z M 196,180 l 4,0 0,4 -4,0 z M 200,180 l 4,0 0,4 -4,0 z M 204,180 l 4,0 0,4 -4,0 z M 216,180 l 4,0 0,4 -4,0 z M 220,180 l 4,0 0,4 -4,0 z M 236,180 l 4,0 0,4 -4,0 z M 8,184 l 4,0 0,4 -4,0 z M 12,184 l 4,0 0,4 -4,0 z M 16,184 l 4,0 0,4 -4,0 z M 20,184 l 4,0 0,4 -4,0 z M 24,184 l 4,0 0,4 -4,0 z M 28,184 l 4,0 0,4 -4,0 z M 36,184 l 4,0 0,4 -4,0 z M 44,184 l 4,0 0,4 -4,0 z M 52,184 l 4,0 0,4 -4,0 z M 64,184 l 4,0 0,4 -4,0 z M 88,184 l 4,0 0,4 -4,0 z M 96,184 l 4,0 0,4 -4,0 z M 120,184 l 4,0 0,4 -4,0 z M 136,184 l 4,0 0,4 -4,0 z M 140,184 l 4,0 0,4 -4,0 z M 144,184 l 4,0 0,4 -4,0 z M 152,184 l 4,0 0,4 -4,0 z M 156,184 l 4,0 0,4 -4,0 z M 168,184 l 4,0 0,4 -4,0 z M 172,184 l 4,0 0,4 -4,0 z M 180,184 l 4,0 0,4 -4,0 z M 188,184 l 4,0 0,4 -4,0 z M 192,184 l 4,0 0,4 -4,0 z M 216,184 l 4,0 0,4 -4,0 z M 224,184 l 4,0 0,4 -4,0 z M 0,188 l 4,0 0,4 -4,0 z M 4,188 l 4,0 0,4 -4,0 z M 16,188 l 4,0 0,4 -4,0 z M 20,188 l 4,0 0,4 -4,0 z M 36,188 l 4,0 0,4 -4,0 z M 40,188 l 4,0 0,4 -4,0 z M 48,188 l 4,0 0,4 -4,0 z M 68,188 l 4,0 0,4 -4,0 z M 72,188 l 4,0 0,4 -4,0 z M 80,188 l 4,0 0,4 -4,0 z M 84,188 l 4,0 0,4 -4,0 z M 88,188 l 4,0 0,4 -4,0 z M 92,188 l 4,0 0,4 -4,0 z M 96,188 l 4,0 0,4 -4,0 z M 108,188 l 4,0 0,4 -4,0 z M 116,188 l 4,0 0,4 -4,0 z M 120,188 l 4,0 0,4 -4,0 z M 124,188 l 4,0 0,4 -4,0 z M 128,188 l 4,0 0,4 -4,0 z M 136,188 l 4,0 0,4 -4,0 z M 148,188 l 4,0 0,4 -4,0 z M 156,188 l 4,0 0,4 -4,0 z M 168,188 l 4,0 0,4 -4,0 z M 176,188 l 4,0 0,4 -4,0 z M 180,188 l 4,0 0,4 -4,0 z M 212,188 l 4,0 0,4 -4,0 z M 216,188 l 4,0 0,4 -4,0 z M 220,188 l 4,0 0,4 -4,0 z M 224,188 l 4,0 0,4 -4,0 z M 228,188 l 4,0 0,4 -4,0 z M 232,188 l 4,0 0,4 -4,0 z M 240,188 l 4,0 0,4 -4,0 z M 4,192 l 4,0 0,4 -4,0 z M 16,192 l 4,0 0,4 -4,0 z M 20,192 l 4,0 0,4 -4,0 z M 24,192 l 4,0 0,4 -4,0 z M 32,192 l 4,0 0,4 -4,0 z M 36,192 l 4,0 0,4 -4,0 z M 44,192 l 4,0 0,4 -4,0 z M 72,192 l 4,0 0,4 -4,0 z M 88,192 l 4,0 0,4 -4,0 z M 92,192 l 4,0 0,4 -4,0 z M 96,192 l 4,0 0,4 -4,0 z M 104,192 l 4,0 0,4 -4,0 z M 112,192 l 4,0 0,4 -4,0 z M 124,192 l 4,0 0,4 -4,0 z M 152,192 l 4,0 0,4 -4,0 z M 164,192 l 4,0 0,4 -4,0 z M 168,192 l 4,0 0,4 -4,0 z M 180,192 l 4,0 0,4 -4,0 z M 188,192 l 4,0 0,4 -4,0 z M 192,192 l 4,0 0,4 -4,0 z M 196,192 l 4,0 0,4 -4,0 z M 212,192 l 4,0 0,4 -4,0 z M 216,192 l 4,0 0,4 -4,0 z M 220,192 l 4,0 0,4 -4,0 z M 228,192 l 4,0 0,4 -4,0 z M 236,192 l 4,0 0,4 -4,0 z M 20,196 l 4,0 0,4 -4,0 z M 32,196 l 4,0 0,4 -4,0 z M 40,196 l 4,0 0,4 -4,0 z M 44,196 l 4,0 0,4 -4,0 z M 48,196 l 4,0 0,4 -4,0 z M 52,196 l 4,0 0,4 -4,0 z M 56,196 l 4,0 0,4 -4,0 z M 60,196 l 4,0 0,4 -4,0 z M 68,196 l 4,0 0,4 -4,0 z M 84,196 l 4,0 0,4 -4,0 z M 104,196 l 4,0 0,4 -4,0 z M 124,196 l 4,0 0,4 -4,0 z M 128,196 l 4,0 0,4 -4,0 z M 132,196 l 4,0 0,4 -4,0 z M 136,196 l 4,0 0,4 -4,0 z M 140,196 l 4,0 0,4 -4,0 z M 144,196 l 4,0 0,4 -4,0 z M 148,196 l 4,0 0,4 -4,0 z M 152,196 l 4,0 0,4 -4,0 z M 160,196 l 4,0 0,4 -4,0 z M 164,196 l 4,0 0,4 -4,0 z M 180,196 l 4,0 0,4 -4,0 z M 184,196 l 4,0 0,4 -4,0 z M 192,196 l 4,0 0,4 -4,0 z M 196,196 l 4,0 0,4 -4,0 z M 200,196 l 4,0 0,4 -4,0 z M 204,196 l 4,0 0,4 -4,0 z M 224,196 l 4,0 0,4 -4,0 z M 232,196 l 4,0 0,4 -4,0 z M 240,196 l 4,0 0,4 -4,0 z M 8,200 l 4,0 0,4 -4,0 z M 12,200 l 4,0 0,4 -4,0 z M 16,200 l 4,0 0,4 -4,0 z M 20,200 l 4,0 0,4 -4,0 z M 24,200 l 4,0 0,4 -4,0 z M 28,200 l 4,0 0,4 -4,0 z M 32,200 l 4,0 0,4 -4,0 z M 36,200 l 4,0 0,4 -4,0 z M 44,200 l 4,0 0,4 -4,0 z M 48,200 l 4,0 0,4 -4,0 z M 52,200 l 4,0 0,4 -4,0 z M 56,200 l 4,0 0,4 -4,0 z M 72,200 l 4,0 0,4 -4,0 z M 104,200 l 4,0 0,4 -4,0 z M 112,200 l 4,0 0,4 -4,0 z M 116,200 l 4,0 0,4 -4,0 z M 124,200 l 4,0 0,4 -4,0 z M 128,200 l 4,0 0,4 -4,0 z M 136,200 l 4,0 0,4 -4,0 z M 144,200 l 4,0 0,4 -4,0 z M 148,200 l 4,0 0,4 -4,0 z M 152,200 l 4,0 0,4 -4,0 z M 164,200 l 4,0 0,4 -4,0 z M 168,200 l 4,0 0,4 -4,0 z M 172,200 l 4,0 0,4 -4,0 z M 180,200 l 4,0 0,4 -4,0 z M 184,200 l 4,0 0,4 -4,0 z M 204,200 l 4,0 0,4 -4,0 z M 212,200 l 4,0 0,4 -4,0 z M 216,200 l 4,0 0,4 -4,0 z M 220,200 l 4,0 0,4 -4,0 z M 0,204 l 4,0 0,4 -4,0 z M 4,204 l 4,0 0,4 -4,0 z M 8,204 l 4,0 0,4 -4,0 z M 16,204 l 4,0 0,4 -4,0 z M 28,204 l 4,0 0,4 -4,0 z M 32,204 l 4,0 0,4 -4,0 z M 40,204 l 4,0 0,4 -4,0 z M 52,204 l 4,0 0,4 -4,0 z M 56,204 l 4,0 0,4 -4,0 z M 60,204 l 4,0 0,4 -4,0 z M 72,204 l 4,0 0,4 -4,0 z M 84,204 l 4,0 0,4 -4,0 z M 92,204 l 4,0 0,4 -4,0 z M 100,204 l 4,0 0,4 -4,0 z M 108,204 l 4,0 0,4 -4,0 z M 112,204 l 4,0 0,4 -4,0 z M 120,204 l 4,0 0,4 -4,0 z M 128,204 l 4,0 0,4 -4,0 z M 132,204 l 4,0 0,4 -4,0 z M 136,204 l 4,0 0,4 -4,0 z M 140,204 l 4,0 0,4 -4,0 z M 152,204 l 4,0 0,4 -4,0 z M 156,204 l 4,0 0,4 -4,0 z M 180,204 l 4,0 0,4 -4,0 z M 192,204 l 4,0 0,4 -4,0 z M 196,204 l 4,0 0,4 -4,0 z M 200,204 l 4,0 0,4 -4,0 z M 212,204 l 4,0 0,4 -4,0 z M 216,204 l 4,0 0,4 -4,0 z M 220,204 l 4,0 0,4 -4,0 z M 228,204 l 4,0 0,4 -4,0 z M 232,204 l 4,0 0,4 -4,0 z M 236,204 l 4,0 0,4 -4,0 z M 240,204 l 4,0 0,4 -4,0 z M 0,208 l 4,0 0,4 -4,0 z M 4,208 l 4,0 0,4 -4,0 z M 8,208 l 4,0 0,4 -4,0 z M 12,208 l 4,0 0,4 -4,0 z M 24,208 l 4,0 0,4 -4,0 z M 40,208 l 4,0 0,4 -4,0 z M 56,208 l 4,0 0,4 -4,0 z M 64,208 l 4,0 0,4 -4,0 z M 68,208 l 4,0 0,4 -4,0 z M 80,208 l 4,0 0,4 -4,0 z M 88,208 l 4,0 0,4 -4,0 z M 92,208 l 4,0 0,4 -4,0 z M 96,208 l 4,0 0,4 -4,0 z M 108,208 l 4,0 0,4 -4,0 z M 112,208 l 4,0 0,4 -4,0 z M 116,208 l 4,0 0,4 -4,0 z M 120,208 l 4,0 0,4 -4,0 z M 124,208 l 4,0 0,4 -4,0 z M 128,208 l 4,0 0,4 -4,0 z M 152,208 l 4,0 0,4 -4,0 z M 164,208 l 4,0 0,4 -4,0 z M 168,208 l 4,0 0,4 -4,0 z M 196,208 l 4,0 0,4 -4,0 z M 208,208 l 4,0 0,4 -4,0 z M 212,208 l 4,0 0,4 -4,0 z M 216,208 l 4,0 0,4 -4,0 z M 220,208 l 4,0 0,4 -4,0 z M 224,208 l 4,0 0,4 -4,0 z M 236,208 l 4,0 0,4 -4,0 z M 240,208 l 4,0 0,4 -4,0 z M 32,212 l 4,0 0,4 -4,0 z M 36,212 l 4,0 0,4 -4,0 z M 40,212 l 4,0 0,4 -4,0 z M 44,212 l 4,0 0,4 -4,0 z M 48,212 l 4,0 0,4 -4,0 z M 60,212 l 4,0 0,4 -4,0 z M 64,212 l 4,0 0,4 -4,0 z M 80,212 l 4,0 0,4 -4,0 z M 84,212 l 4,0 0,4 -4,0 z M 96,212 l 4,0 0,4 -4,0 z M 112,212 l 4,0 0,4 -4,0 z M 128,212 l 4,0 0,4 -4,0 z M 132,212 l 4,0 0,4 -4,0 z M 136,212 l 4,0 0,4 -4,0 z M 144,212 l 4,0 0,4 -4,0 z M 168,212 l 4,0 0,4 -4,0 z M 172,212 l 4,0 0,4 -4,0 z M 180,212 l 4,0 0,4 -4,0 z M 188,212 l 4,0 0,4 -4,0 z M 192,212 l 4,0 0,4 -4,0 z M 196,212 l 4,0 0,4 -4,0 z M 200,212 l 4,0 0,4 -4,0 z M 204,212 l 4,0 0,4 -4,0 z M 208,212 l 4,0 0,4 -4,0 z M 224,212 l 4,0 0,4 -4,0 z M 228,212 l 4,0 0,4 -4,0 z M 232,212 l 4,0 0,4 -4,0 z M 236,212 l 4,0 0,4 -4,0 z M 240,212 l 4,0 0,4 -4,0 z M 0,216 l 4,0 0,4 -4,0 z M 4,216 l 4,0 0,4 -4,0 z M 8,216 l 4,0 0,4 -4,0 z M 12,216 l 4,0 0,4 -4,0 z M 16,216 l 4,0 0,4 -4,0 z M 20,216 l 4,0 0,4 -4,0 z M 24,216 l 4,0 0,4 -4,0 z M 32,216 l 4,0 0,4 -4,0 z M 40,216 l 4,0 0,4 -4,0 z M 48,216 l 4,0 0,4 -4,0 z M 52,216 l 4,0 0,4 -4,0 z M 60,216 l 4,0 0,4 -4,0 z M 68,216 l 4,0 0,4 -4,0 z M 76,216 l 4,0 0,4 -4,0 z M 80,216 l 4,0 0,4 -4,0 z M 88,216 l 4,0 0,4 -4,0 z M 92,216 l 4,0 0,4 -4,0 z M 96,216 l 4,0 0,4 -4,0 z M 100,216 l 4,0 0,4 -4,0 z M 104,216 l 4,0 0,4 -4,0 z M 112,216 l 4,0 0,4 -4,0 z M 120,216 l 4,0 0,4 -4,0 z M 128,216 l 4,0 0,4 -4,0 z M 136,216 l 4,0 0,4 -4,0 z M 140,216 l 4,0 0,4 -4,0 z M 144,216 l 4,0 0,4 -4,0 z M 148,216 l 4,0 0,4 -4,0 z M 152,216 l 4,0 0,4 -4,0 z M 160,216 l 4,0 0,4 -4,0 z M 164,216 l 4,0 0,4 -4,0 z M 172,216 l 4,0 0,4 -4,0 z M 176,216 l 4,0 0,4 -4,0 z M 180,216 l 4,0 0,4 -4,0 z M 184,216 l 4,0 0,4 -4,0 z M 200,216 l 4,0 0,4 -4,0 z M 204,216 l 4,0 0,4 -4,0 z M 208,216 l 4,0 0,4 -4,0 z M 216,216 l 4,0 0,4 -4,0 z M 224,216 l 4,0 0,4 -4,0 z M 228,216 l 4,0 0,4 -4,0 z M 232,216 l 4,0 0,4 -4,0 z M 236,216 l 4,0 0,4 -4,0 z M 0,220 l 4,0 0,4 -4,0 z M 24,220 l 4,0 0,4 -4,0 z M 36,220 l 4,0 0,4 -4,0 z M 40,220 l 4,0 0,4 -4,0 z M 56,220 l 4,0 0,4 -4,0 z M 60,220 l 4,0 0,4 -4,0 z M 64,220 l 4,0 0,4 -4,0 z M 92,220 l 4,0 0,4 -4,0 z M 96,220 l 4,0 0,4 -4,0 z M 108,220 l 4,0 0,4 -4,0 z M 112,220 l 4,0 0,4 -4,0 z M 128,220 l 4,0 0,4 -4,0 z M 144,220 l 4,0 0,4 -4,0 z M 148,220 l 4,0 0,4 -4,0 z M 164,220 l 4,0 0,4 -4,0 z M 168,220 l 4,0 0,4 -4,0 z M 176,220 l 4,0 0,4 -4,0 z M 184,220 l 4,0 0,4 -4,0 z M 188,220 l 4,0 0,4 -4,0 z M 196,220 l 4,0 0,4 -4,0 z M 204,220 l 4,0 0,4 -4,0 z M 208,220 l 4,0 0,4 -4,0 z M 224,220 l 4,0 0,4 -4,0 z M 232,220 l 4,0 0,4 -4,0 z M 0,224 l 4,0 0,4 -4,0 z M 8,224 l 4,0 0,4 -4,0 z M 12,224 l 4,0 0,4 -4,0 z M 16,224 l 4,0 0,4 -4,0 z M 24,224 l 4,0 0,4 -4,0 z M 32,224 l 4,0 0,4 -4,0 z M 44,224 l 4,0 0,4 -4,0 z M 48,224 l 4,0 0,4 -4,0 z M 52,224 l 4,0 0,4 -4,0 z M 68,224 l 4,0 0,4 -4,0 z M 76,224 l 4,0 0,4 -4,0 z M 84,224 l 4,0 0,4 -4,0 z M 88,224 l 4,0 0,4 -4,0 z M 100,224 l 4,0 0,4 -4,0 z M 104,224 l 4,0 0,4 -4,0 z M 108,224 l 4,0 0,4 -4,0 z M 112,224 l 4,0 0,4 -4,0 z M 116,224 l 4,0 0,4 -4,0 z M 120,224 l 4,0 0,4 -4,0 z M 124,224 l 4,0 0,4 -4,0 z M 128,224 l 4,0 0,4 -4,0 z M 132,224 l 4,0 0,4 -4,0 z M 136,224 l 4,0 0,4 -4,0 z M 140,224 l 4,0 0,4 -4,0 z M 148,224 l 4,0 0,4 -4,0 z M 160,224 l 4,0 0,4 -4,0 z M 164,224 l 4,0 0,4 -4,0 z M 172,224 l 4,0 0,4 -4,0 z M 204,224 l 4,0 0,4 -4,0 z M 208,224 l 4,0 0,4 -4,0 z M 212,224 l 4,0 0,4 -4,0 z M 216,224 l 4,0 0,4 -4,0 z M 220,224 l 4,0 0,4 -4,0 z M 224,224 l 4,0 0,4 -4,0 z M 232,224 l 4,0 0,4 -4,0 z M 236,224 l 4,0 0,4 -4,0 z M 240,224 l 4,0 0,4 -4,0 z M 0,228 l 4,0 0,4 -4,0 z M 8,228 l 4,0 0,4 -4,0 z M 12,228 l 4,0 0,4 -4,0 z M 16,228 l 4,0 0,4 -4,0 z M 24,228 l 4,0 0,4 -4,0 z M 32,228 l 4,0 0,4 -4,0 z M 44,228 l 4,0 0,4 -4,0 z M 48,228 l 4,0 0,4 -4,0 z M 60,228 l 4,0 0,4 -4,0 z M 72,228 l 4,0 0,4 -4,0 z M 104,228 l 4,0 0,4 -4,0 z M 112,228 l 4,0 0,4 -4,0 z M 120,228 l 4,0 0,4 -4,0 z M 136,228 l 4,0 0,4 -4,0 z M 148,228 l 4,0 0,4 -4,0 z M 152,228 l 4,0 0,4 -4,0 z M 168,228 l 4,0 0,4 -4,0 z M 180,228 l 4,0 0,4 -4,0 z M 184,228 l 4,0 0,4 -4,0 z M 188,228 l 4,0 0,4 -4,0 z M 192,228 l 4,0 0,4 -4,0 z M 208,228 l 4,0 0,4 -4,0 z M 216,228 l 4,0 0,4 -4,0 z M 220,228 l 4,0 0,4 -4,0 z M 224,228 l 4,0 0,4 -4,0 z M 240,228 l 4,0 0,4 -4,0 z M 0,232 l 4,0 0,4 -4,0 z M 8,232 l 4,0 0,4 -4,0 z M 12,232 l 4,0 0,4 -4,0 z M 16,232 l 4,0 0,4 -4,0 z M 24,232 l 4,0 0,4 -4,0 z M 32,232 l 4,0 0,4 -4,0 z M 36,232 l 4,0 0,4 -4,0 z M 44,232 l 4,0 0,4 -4,0 z M 52,232 l 4,0 0,4 -4,0 z M 56,232 l 4,0 0,4 -4,0 z M 64,232 l 4,0 0,4 -4,0 z M 72,232 l 4,0 0,4 -4,0 z M 76,232 l 4,0 0,4 -4,0 z M 88,232 l 4,0 0,4 -4,0 z M 96,232 l 4,0 0,4 -4,0 z M 100,232 l 4,0 0,4 -4,0 z M 124,232 l 4,0 0,4 -4,0 z M 132,232 l 4,0 0,4 -4,0 z M 140,232 l 4,0 0,4 -4,0 z M 144,232 l 4,0 0,4 -4,0 z M 148,232 l 4,0 0,4 -4,0 z M 156,232 l 4,0 0,4 -4,0 z M 164,232 l 4,0 0,4 -4,0 z M 172,232 l 4,0 0,4 -4,0 z M 184,232 l 4,0 0,4 -4,0 z M 200,232 l 4,0 0,4 -4,0 z M 204,232 l 4,0 0,4 -4,0 z M 208,232 l 4,0 0,4 -4,0 z M 212,232 l 4,0 0,4 -4,0 z M 216,232 l 4,0 0,4 -4,0 z M 224,232 l 4,0 0,4 -4,0 z M 228,232 l 4,0 0,4 -4,0 z M 232,232 l 4,0 0,4 -4,0 z M 240,232 l 4,0 0,4 -4,0 z M 0,236 l 4,0 0,4 -4,0 z M 24,236 l 4,0 0,4 -4,0 z M 32,236 l 4,0 0,4 -4,0 z M 40,236 l 4,0 0,4 -4,0 z M 52,236 l 4,0 0,4 -4,0 z M 56,236 l 4,0 0,4 -4,0 z M 60,236 l 4,0 0,4 -4,0 z M 64,236 l 4,0 0,4 -4,0 z M 84,236 l 4,0 0,4 -4,0 z M 92,236 l 4,0 0,4 -4,0 z M 96,236 l 4,0 0,4 -4,0 z M 100,236 l 4,0 0,4 -4,0 z M 116,236 l 4,0 0,4 -4,0 z M 120,236 l 4,0 0,4 -4,0 z M 124,236 l 4,0 0,4 -4,0 z M 140,236 l 4,0 0,4 -4,0 z M 144,236 l 4,0 0,4 -4,0 z M 168,236 l 4,0 0,4 -4,0 z M 172,236 l 4,0 0,4 -4,0 z M 184,236 l 4,0 0,4 -4,0 z M 188,236 l 4,0 0,4 -4,0 z M 220,236 l 4,0 0,4 -4,0 z M 232,236 l 4,0 0,4 -4,0 z M 0,240 l 4,0 0,4 -4,0 z M 4,240 l 4,0 0,4 -4,0 z M 8,240 l 4,0 0,4 -4,0 z M 12,240 l 4,0 0,4 -4,0 z M 16,240 l 4,0 0,4 -4,0 z M 20,240 l 4,0 0,4 -4,0 z M 24,240 l 4,0 0,4 -4,0 z M 32,240 l 4,0 0,4 -4,0 z M 40,240 l 4,0 0,4 -4,0 z M 52,240 l 4,0 0,4 -4,0 z M 64,240 l 4,0 0,4 -4,0 z M 68,240 l 4,0 0,4 -4,0 z M 80,240 l 4,0 0,4 -4,0 z M 88,240 l 4,0 0,4 -4,0 z M 96,240 l 4,0 0,4 -4,0 z M 100,240 l 4,0 0,4 -4,0 z M 108,240 l 4,0 0,4 -4,0 z M 132,240 l 4,0 0,4 -4,0 z M 136,240 l 4,0 0,4 -4,0 z M 148,240 l 4,0 0,4 -4,0 z M 156,240 l 4,0 0,4 -4,0 z M 168,240 l 4,0 0,4 -4,0 z M 176,240 l 4,0 0,4 -4,0 z M 196,240 l 4,0 0,4 -4,0 z M 200,240 l 4,0 0,4 -4,0 z M 208,240 l 4,0 0,4 -4,0 z M 212,240 l 4,0 0,4 -4,0 z M 216,240 l 4,0 0,4 -4,0 z M 220,240 l 4,0 0,4 -4,0 z M 232,240 l 4,0 0,4 -4,0 z M 240,240 l 4,0 0,4 -4,0 z " />
	</g>
</svg>
